<svg
        xmlns="http://www.w3.org/2000/svg"
        xmlns:xlink="http://www.w3.org/1999/xlink"
        width="45px" height="45px">
    <path fill-rule="evenodd"  fill="#ffffff"
          d="M44.908,34.870 C44.781,34.486 43.971,33.921 42.479,33.175 C42.075,32.941 41.499,32.621 40.753,32.217 C40.007,31.811 39.330,31.438 38.723,31.097 C38.116,30.757 37.545,30.426 37.013,30.107 C36.928,30.042 36.661,29.856 36.214,29.547 C35.766,29.238 35.388,29.009 35.079,28.860 C34.770,28.711 34.466,28.636 34.167,28.636 C33.741,28.636 33.209,28.940 32.570,29.547 C31.931,30.154 31.344,30.815 30.812,31.529 C30.279,32.244 29.715,32.904 29.118,33.511 C28.522,34.119 28.031,34.422 27.648,34.422 C27.456,34.422 27.216,34.369 26.928,34.263 C26.641,34.157 26.422,34.065 26.272,33.992 C26.124,33.916 25.868,33.768 25.506,33.543 C25.143,33.320 24.940,33.197 24.898,33.175 C21.978,31.556 19.475,29.702 17.386,27.613 C15.298,25.524 13.443,23.020 11.824,20.101 C11.802,20.058 11.680,19.856 11.456,19.493 C11.232,19.131 11.083,18.875 11.008,18.726 C10.934,18.577 10.843,18.358 10.737,18.071 C10.630,17.783 10.577,17.543 10.577,17.351 C10.577,16.968 10.881,16.477 11.488,15.881 C12.095,15.284 12.756,14.719 13.470,14.187 C14.184,13.655 14.844,13.068 15.452,12.429 C16.059,11.790 16.363,11.257 16.363,10.831 C16.363,10.533 16.288,10.229 16.139,9.920 C15.990,9.610 15.761,9.233 15.452,8.785 C15.143,8.337 14.956,8.071 14.892,7.986 C14.573,7.453 14.243,6.883 13.902,6.275 C13.560,5.668 13.188,4.991 12.783,4.246 C12.378,3.500 12.058,2.924 11.824,2.519 C11.078,1.028 10.513,0.218 10.129,0.090 C9.980,0.026 9.756,-0.006 9.458,-0.006 C8.882,-0.006 8.131,0.101 7.204,0.314 C6.277,0.527 5.547,0.751 5.014,0.985 C3.949,1.433 2.819,2.733 1.626,4.885 C0.539,6.888 -0.004,8.870 -0.004,10.830 C-0.004,11.406 0.033,11.965 0.108,12.509 C0.182,13.052 0.315,13.665 0.507,14.347 C0.699,15.029 0.854,15.536 0.971,15.865 C1.088,16.196 1.306,16.787 1.626,17.639 C1.945,18.492 2.137,19.014 2.201,19.206 C2.947,21.294 3.831,23.159 4.854,24.800 C6.537,27.528 8.834,30.347 11.743,33.256 C14.652,36.165 17.470,38.462 20.198,40.145 C21.839,41.168 23.704,42.052 25.793,42.798 C25.985,42.862 26.507,43.054 27.359,43.374 C28.211,43.693 28.803,43.912 29.133,44.030 C29.463,44.147 29.970,44.301 30.651,44.494 C31.334,44.685 31.946,44.818 32.490,44.893 C33.033,44.967 33.593,45.006 34.168,45.006 C36.128,45.006 38.111,44.461 40.114,43.375 C42.266,42.181 43.566,41.052 44.013,39.986 C44.249,39.454 44.472,38.724 44.685,37.796 C44.898,36.869 45.004,36.118 45.004,35.543 C45.005,35.244 44.973,35.020 44.908,34.870 Z"/>
</svg>