<svg 
 xmlns="http://www.w3.org/2000/svg"
 xmlns:xlink="http://www.w3.org/1999/xlink"
 width="45px" height="45px">
<path fill-rule="evenodd"  fill="rgb(81, 211, 121)"
 d="M22.500,45.000 C10.093,45.000 -0.000,34.906 -0.000,22.500 C-0.000,10.093 10.093,-0.000 22.500,-0.000 C34.907,-0.000 45.000,10.093 45.000,22.500 C45.000,34.907 34.907,45.000 22.500,45.000 ZM38.439,14.665 L36.401,15.842 C36.214,15.950 36.011,16.001 35.810,16.001 C35.400,16.001 35.003,15.788 34.783,15.409 C34.456,14.842 34.650,14.118 35.216,13.791 L37.252,12.616 C35.847,10.526 34.010,8.750 31.870,7.416 L30.910,9.090 C30.799,9.284 30.590,9.405 30.365,9.405 C30.255,9.405 30.151,9.377 30.054,9.322 C29.755,9.150 29.651,8.766 29.822,8.466 L30.783,6.791 C28.638,5.655 26.234,4.946 23.684,4.778 L23.684,7.133 C23.684,7.787 23.154,8.317 22.500,8.317 C21.846,8.317 21.316,7.787 21.316,7.133 L21.316,4.778 C18.728,4.949 16.290,5.676 14.120,6.842 L15.091,8.512 C15.175,8.656 15.198,8.825 15.155,8.987 C15.112,9.149 15.009,9.284 14.864,9.368 C14.671,9.481 14.428,9.480 14.237,9.370 C14.141,9.315 14.064,9.238 14.008,9.142 L13.038,7.474 C10.937,8.801 9.133,10.556 7.748,12.616 L9.783,13.791 C10.350,14.118 10.544,14.842 10.217,15.409 C9.997,15.788 9.599,16.001 9.190,16.001 C8.989,16.001 8.786,15.950 8.599,15.842 L6.561,14.665 C5.473,16.869 4.830,19.328 4.747,21.928 L6.683,21.922 C7.027,21.922 7.308,22.202 7.309,22.547 C7.310,22.714 7.245,22.872 7.127,22.990 C7.009,23.109 6.852,23.175 6.685,23.175 L4.751,23.181 C4.848,25.740 5.489,28.162 6.561,30.335 L8.599,29.158 C9.165,28.831 9.890,29.025 10.217,29.592 C10.544,30.158 10.350,30.882 9.783,31.209 L7.748,32.384 C9.153,34.474 10.990,36.250 13.130,37.584 L14.089,35.910 C14.201,35.716 14.410,35.595 14.634,35.595 C14.744,35.595 14.849,35.623 14.945,35.678 C15.090,35.761 15.194,35.896 15.238,36.058 C15.282,36.220 15.260,36.389 15.177,36.534 L14.217,38.209 C16.362,39.345 18.766,40.054 21.316,40.223 L21.316,37.867 C21.316,37.213 21.846,36.683 22.500,36.683 C23.154,36.683 23.684,37.213 23.684,37.867 L23.684,40.223 C26.272,40.051 28.710,39.324 30.879,38.159 L29.908,36.489 C29.824,36.344 29.802,36.175 29.844,36.013 C29.887,35.852 29.990,35.716 30.135,35.632 C30.232,35.575 30.338,35.547 30.449,35.547 C30.672,35.547 30.880,35.666 30.992,35.859 L31.962,37.527 C34.062,36.199 35.867,34.444 37.252,32.384 L35.216,31.209 C34.650,30.882 34.456,30.158 34.783,29.592 C35.110,29.025 35.834,28.831 36.401,29.158 L38.439,30.335 C39.526,28.131 40.170,25.672 40.253,23.072 L38.319,23.079 L38.317,23.079 C38.208,23.079 38.100,23.050 38.006,22.996 C37.812,22.885 37.691,22.677 37.690,22.453 C37.690,22.286 37.755,22.129 37.872,22.010 C37.990,21.891 38.147,21.825 38.315,21.825 L40.249,21.819 C40.152,19.260 39.511,16.838 38.439,14.665 ZM32.695,18.680 L24.945,22.980 C24.721,24.127 23.712,24.992 22.500,24.992 C21.287,24.992 20.278,24.127 20.054,22.980 L12.304,18.680 C11.586,18.281 11.327,17.376 11.725,16.657 C12.124,15.939 13.030,15.680 13.748,16.079 L21.343,20.293 C21.689,20.111 22.082,20.007 22.500,20.007 C22.918,20.007 23.311,20.111 23.656,20.293 L31.252,16.079 C31.970,15.680 32.876,15.939 33.274,16.657 C33.672,17.376 33.413,18.281 32.695,18.680 Z"/>
</svg>